<?xml version="1.0" encoding="utf-8"?>
<!-- Generator: Adobe Illustrator 18.1.1, SVG Export Plug-In . SVG Version: 6.00 Build 0)  -->
<svg version="1.1" id="Layer_1" xmlns="http://www.w3.org/2000/svg" xmlns:xlink="http://www.w3.org/1999/xlink" x="0px" y="0px"
	 viewBox="0 0 600 600" enable-background="new 0 0 600 600" xml:space="preserve">
<g>
	<g>
		<polygon points="572.5,385.9 577.5,401 591.6,394.7 584.7,408.5 599.1,414.1 584.4,419.2 590.7,433.3 576.6,426.4 570.9,440.8 
			566.2,426.1 551.8,432.3 559,418.2 544.2,412.6 559.3,407.9 553,393.4 566.8,400.6 		"/>
	</g>
	<g>
		<polygon points="29.9,159.3 34.6,174.4 49,167.8 41.8,181.9 56.5,187.5 41.5,192.3 48.1,206.7 33.9,199.5 28.3,214.2 23.6,199.2 
			9.1,205.4 16.4,191.6 1.6,186 16.7,181.3 10.4,166.8 24.2,174.1 		"/>
	</g>
	<g>
		<path stroke="#000000" stroke-miterlimit="10" d="M413.7,29.4"/>
	</g>
	<g>
		<path d="M571.5,413.5"/>
	</g>
	<g>
		<path d="M438.2,559.8c0,0,2.2-1.9,6-4.4c0.9-0.6,2.2-1.6,3.1-2.2c1.3-0.9,2.5-1.9,3.8-2.8c1.3-0.9,2.8-1.9,4.4-2.8
			c1.6-0.9,3.1-2.2,4.7-3.5s3.5-2.5,5-3.5c1.9-1.3,3.5-2.5,5.6-3.8c0.9-0.6,1.9-1.3,2.8-1.9c0.9-0.6,1.9-1.3,3.1-1.9
			c2.2-1.3,4.1-2.5,6.3-4.1c0.9-0.6,2.2-1.6,3.1-2.2c0.9-0.6,2.2-1.6,3.1-2.2c0.9-0.9,2.2-1.6,3.1-2.5c0.9-0.9,1.9-1.9,2.8-2.5
			c0.9-0.9,1.9-1.9,2.8-2.8l1.6-1.3c0.6-0.3,0.9-0.9,1.3-1.6c0.9-0.9,1.9-1.9,2.8-3.1l2.8-3.1c0.9-0.9,1.9-2.2,2.5-3.1
			c0.9-0.9,1.6-2.2,2.5-3.1c0.9-0.9,1.9-2.2,2.5-3.1c0.9-0.9,1.6-2.2,2.5-3.1c0.9-0.9,1.6-1.9,2.5-3.1c0.9-0.9,1.6-1.9,2.5-3.1
			c1.6-2.2,3.1-4.1,4.7-6c0.3-0.6,0.6-0.9,1.3-1.6c0.3-0.6,0.6-0.9,1.3-1.6c0.6-0.9,1.6-1.9,2.2-2.8c1.6-1.9,2.8-3.8,4.4-5.6
			c1.3-1.9,2.8-3.8,4.1-5.3c0.3-0.3,0.6-0.9,0.9-1.3c0.3-0.3,0.6-0.9,0.9-1.3c0.6-0.9,1.3-1.6,1.9-2.5c1.3-1.6,2.5-3.1,3.5-4.7
			c0.9-1.6,2.2-2.8,3.1-4.4c0.9-1.3,1.9-2.5,2.8-3.8c0.9-1.3,1.6-2.2,2.2-3.1c2.8-3.8,4.4-6,4.4-6l0.6,0.3c0,0-0.9,2.5-2.8,6.9
			c-0.9,2.2-2.2,4.7-3.8,7.8c-0.6,1.6-1.6,3.1-2.5,4.7s-1.9,3.5-2.8,5c-0.9,1.9-2.2,3.8-3.5,5.3c-1.3,1.9-2.5,3.8-3.8,5.6
			c-0.6,0.9-1.3,1.9-2.2,2.8c-0.6,0.9-1.6,1.9-2.2,2.8c-0.6,0.9-1.6,1.9-2.2,2.8c-0.6,0.9-1.6,1.9-2.5,2.8c-1.6,1.9-3.5,3.8-5,6
			c-0.9,0.9-1.9,1.9-2.8,2.8c-0.9,0.9-1.9,1.9-2.8,2.8c-0.9,0.9-1.9,1.9-2.8,2.8c-0.9,0.9-1.9,1.9-3.1,2.8c-0.9,0.9-1.9,1.9-3.1,2.8
			c-0.9,0.9-1.9,1.9-3.1,2.8l-3.1,2.5c-0.9,0.9-2.2,1.9-3.1,2.5c-0.9,0.9-2.2,1.9-3.1,2.5c-0.9,0.9-2.2,1.9-3.1,2.5
			c-1.9,1.9-4.1,3.5-6,5.3c-1.9,1.9-3.8,3.8-5.6,5.3c-1.9,1.9-3.8,3.5-5.6,5c-0.9,0.9-1.9,1.6-2.8,2.5c-0.9,0.6-1.9,1.6-2.8,2.2
			c-1.9,1.6-3.8,2.8-5.6,4.1c-1.9,1.3-3.8,2.2-5.3,3.5c-0.9,0.6-1.9,0.9-2.5,1.6c-0.9,0.6-1.6,0.9-2.5,1.6c-1.6,0.9-3.1,1.6-4.7,2.5
			c-1.6,0.6-2.8,1.6-4.1,2.2c-1.3,0.6-2.5,1.3-3.8,1.6c-4.4,1.9-6.9,2.8-6.9,2.8L438.2,559.8z"/>
	</g>
	<g>
		<path d="M163.2,40.7c0,0-0.6,0.3-1.6,1.3c-0.9,0.6-2.5,1.9-4.4,3.5c-0.9,0.6-2.2,1.6-3.1,2.2c-1.3,0.9-2.5,1.9-3.8,2.8
			c-2.5,1.9-5.6,4.1-8.8,6.6c-1.6,1.3-3.1,2.5-5,3.8c-1.6,1.3-3.5,2.8-5.3,4.1c-0.9,0.6-1.9,1.6-2.8,2.2c-0.9,0.6-1.9,1.6-2.8,2.2
			c-1.9,1.6-3.8,3.1-5.6,4.7c-1.9,1.6-3.8,3.5-5.6,5c-0.9,0.9-1.9,1.6-2.8,2.5c-0.9,0.9-1.9,1.9-2.8,2.5c-0.9,0.9-1.9,1.9-2.8,2.8
			c-0.9,0.9-1.9,1.9-2.8,2.8c-1.9,1.9-3.8,3.8-5.6,5.6c-0.9,0.9-1.9,1.9-2.8,2.8c-0.9,0.9-1.9,1.9-2.8,2.8c-0.9,0.9-1.9,1.9-2.8,2.8
			c-0.9,0.9-1.9,1.9-2.8,2.8c-0.9,0.9-1.9,1.9-2.8,2.8c-0.9,0.9-1.9,1.9-2.5,2.8c-1.6,1.9-3.5,3.8-5,5.6c-0.9,0.9-1.6,1.9-2.5,2.8
			c-0.6,0.9-1.6,1.9-2.5,2.8c-1.6,1.9-3.1,3.5-4.7,5.3c-2.8,3.5-5.6,6.9-8.2,10c-1.3,1.6-2.5,3.1-3.5,4.7c-1.3,1.6-2.2,2.8-3.1,4.1
			c-0.9,1.3-1.9,2.5-2.8,3.8c-0.9,1.3-1.6,2.2-2.2,3.1c-1.3,1.9-2.5,3.5-3.5,4.4s-1.3,1.6-1.3,1.6l-0.6-0.3c0,0,1.3-2.5,3.8-6.6
			c0.6-0.9,1.3-2.2,1.9-3.5c0.6-1.3,1.6-2.5,2.5-4.1c0.9-1.6,1.9-2.8,2.8-4.4c0.9-1.6,2.2-3.1,3.1-5c0.6-0.9,1.3-1.6,1.6-2.5
			c0.3-0.3,0.6-0.9,0.9-1.3c0.3-0.3,0.6-0.9,0.9-1.3c1.3-1.9,2.5-3.8,4.1-5.6c1.3-1.9,2.8-3.8,4.4-5.6c0.6-0.9,1.6-1.9,2.2-2.8
			c0.6-0.9,1.6-1.9,2.5-2.8c1.6-1.9,3.1-4.1,5-6c0.9-0.9,1.6-1.9,2.5-3.1c0.9-0.9,1.9-1.9,2.5-3.1c0.9-0.9,1.9-1.9,2.8-3.1
			c0.9-0.9,1.9-1.9,2.8-2.8c0.9-0.9,1.9-1.9,2.8-2.8c0.9-0.9,1.9-1.9,2.8-2.8c1.9-1.9,4.1-3.8,6-5.6c0.9-0.9,1.9-1.9,3.1-2.8
			c0.9-0.9,1.9-1.9,3.1-2.8c0.9-0.9,1.9-1.9,3.1-2.5c0.9-0.9,1.9-1.6,3.1-2.5c1.9-1.6,4.1-3.5,6-5c1.9-1.6,4.1-3.1,6-4.7
			c0.9-0.6,1.9-1.6,2.8-2.2s1.9-1.3,2.8-2.2c1.9-1.3,3.8-2.5,5.6-4.1c1.9-1.3,3.8-2.5,5.3-3.5c0.9-0.6,1.6-1.3,2.5-1.6
			c0.9-0.6,1.6-0.9,2.5-1.6c1.6-0.9,3.1-1.9,4.4-2.8c1.6-0.9,2.8-1.6,4.1-2.5c1.3-0.6,2.5-1.3,3.5-1.9c4.1-2.2,6.6-3.5,6.6-3.5
			L163.2,40.7z"/>
	</g>
	<g>
		<polygon points="168.3,47.9 175.5,34.1 161,28.4 175.8,23.4 169.5,9.3 183.3,16.2 189,1.8 194,16.5 208.1,10.2 201.2,24.4 
			215.6,30 200.9,34.7 207.2,49.2 193.4,41.9 187.4,56.7 182.7,41.6 		"/>
	</g>
	<g>
		<polygon points="391.7,592.1 398.9,578 384.5,572.3 399.2,567.6 393,553.2 406.8,560.4 412.4,545.6 417.4,560.7 431.6,554.4 
			424.7,568.2 439.1,573.9 424.3,578.9 430.6,593 416.5,586.1 410.8,600.5 406.1,585.8 		"/>
	</g>
	<g>
		<path stroke="#000000" stroke-miterlimit="10" d="M28.3,412.3"/>
	</g>
	<g>
		<g>
			<path d="M188.7,29.1"/>
		</g>
	</g>
	<g>
		<g>
			<path d="M386.4,20c0,0-0.6,0-1.9-0.3c-1.3-0.3-3.1-0.3-5.6-0.9c-1.3-0.3-2.5-0.3-3.8-0.6c-1.6,0-2.8-0.3-4.7-0.6
				c-3.1-0.3-6.9-0.9-11-1.6c-1.9-0.3-4.1-0.6-6.3-0.6c-2.2-0.3-4.4-0.3-6.6-0.6c-1.3,0-2.2-0.3-3.5-0.3s-2.5-0.3-3.5-0.3
				c-2.5,0-4.7-0.3-7.2-0.6c-2.5,0-5-0.3-7.5-0.3c-1.3,0-2.5-0.3-3.8-0.3c-1.3,0-2.5,0-3.8,0c-1.3,0-2.5,0-4.1,0c-1.3,0-2.5,0-4.1,0
				c-2.5,0-5.3,0-7.8,0c-1.3,0-2.5,0-4.1,0c-1.3,0-2.5,0-4.1,0c-1.3,0-2.5,0-4.1,0c-1.3,0-2.5,0-4.1,0.3c-1.3,0-2.5,0-3.8,0
				c-1.3,0-2.5,0-3.8,0.3c-2.5,0.3-5,0.3-7.5,0.3c-1.3,0-2.5,0.3-3.8,0.3c-1.3,0-2.5,0.3-3.8,0.3c-2.5,0.3-4.7,0.3-6.9,0.6
				c-4.7,0.6-8.8,0.9-12.9,1.6c-1.9,0.3-3.8,0.6-5.6,0.6c-1.9,0.3-3.5,0.6-5.3,0.6c-1.6,0.3-3.1,0.3-4.7,0.6
				c-1.6,0.3-2.8,0.3-3.8,0.6c-2.2,0.3-4.1,0.6-5.3,0.6C216.6,20,216,20,216,20l-0.3-0.6c0,0,2.5-0.6,7.2-2.2
				c1.3-0.3,2.5-0.6,3.8-0.9c1.3-0.3,2.8-0.6,4.4-1.3c1.6-0.3,3.5-0.9,5-1.3c1.9-0.3,3.8-0.9,5.6-1.3c0.9-0.3,1.9-0.3,3.1-0.6
				c0.6,0,0.9-0.3,1.6-0.3s0.9-0.3,1.6-0.3c2.2-0.3,4.4-0.6,6.6-1.3c2.2-0.3,4.7-0.6,7.2-0.9c1.3-0.3,2.5-0.3,3.8-0.6
				c1.3-0.3,2.5-0.3,3.8-0.3c2.5-0.3,5-0.6,7.8-0.6c1.3,0,2.5-0.3,4.1-0.3c1.3,0,2.5-0.3,4.1-0.3c1.3,0,2.8-0.3,4.1-0.3s2.8,0,4.1,0
				c1.3,0,2.8,0,4.1,0c1.3,0,2.8,0,4.1,0c2.8,0,5.3,0,8.2,0c1.3,0,2.8,0,4.1,0.3c1.3,0,2.8,0,4.1,0.3c1.3,0,2.5,0,4.1,0.3
				c1.3,0,2.5,0.3,4.1,0.3c2.5,0.3,5.3,0.3,7.8,0.6c2.5,0.3,5,0.6,7.5,0.9c1.3,0.3,2.5,0.3,3.5,0.6c1.3,0.3,2.2,0.3,3.5,0.6
				c2.2,0.3,4.4,0.6,6.6,1.3c2.2,0.3,4.1,0.9,6.3,1.3c0.9,0.3,1.9,0.3,2.8,0.6c0.9,0.3,1.9,0.3,2.8,0.6c1.9,0.3,3.5,0.9,5,1.3
				c1.6,0.3,3.1,0.9,4.4,1.3c1.3,0.3,2.5,0.6,3.8,1.3c4.7,1.3,7.2,2.2,7.2,2.2L386.4,20z"/>
		</g>
	</g>
	<g>
		<g>
			<path d="M213.8,581.7c0,0,0.6,0,1.9,0.3s3.1,0.3,5.6,0.9c1.3,0.3,2.5,0.3,3.8,0.6c1.6,0.3,2.8,0.3,4.7,0.6
				c3.1,0.3,6.9,0.9,11,1.6c1.9,0.3,4.1,0.6,6.3,0.9c2.2,0.3,4.4,0.6,6.6,0.6c1.3,0,2.2,0.3,3.5,0.3c1.3,0,2.5,0.3,3.5,0.3
				c2.5,0,4.7,0.3,7.2,0.6c2.5,0,5,0.3,7.5,0.3c1.3,0,2.5,0.3,3.8,0.3c1.3,0,2.5,0,3.8,0c1.3,0,2.5,0,4.1,0c1.3,0,2.5,0,4.1,0
				c2.5,0,5.3,0,7.8,0c1.3,0,2.5,0,4.1,0c1.3,0,2.5,0,4.1,0c1.3,0,2.5,0,4.1,0c1.3,0,2.5,0,4.1,0c1.3,0,2.5,0,3.8,0
				c1.3,0,2.5,0,3.8,0c2.5-0.3,5-0.3,7.5-0.3c1.3,0,2.5-0.3,3.8-0.3c1.3,0,2.5-0.3,3.8-0.3c2.5-0.3,4.7-0.3,7.2-0.6
				c4.7-0.6,8.8-0.9,12.9-1.3c1.9-0.3,4.1-0.6,5.6-0.6c1.9-0.3,3.5-0.6,5.3-0.6c1.6-0.3,3.1-0.3,4.7-0.6c1.6-0.3,2.8-0.3,3.8-0.6
				c2.2-0.3,4.1-0.6,5.6-0.6c1.3,0,1.9-0.3,1.9-0.3l0.3,0.6c0,0-2.5,0.6-7.2,2.2c-1.3,0.3-2.5,0.6-3.8,0.9c-1.3,0.3-2.8,0.6-4.4,1.3
				c-1.6,0.3-3.5,0.9-5,1.3c-1.9,0.3-3.8,0.6-5.6,1.3c-0.9,0.3-1.9,0.3-3.1,0.6c-0.6,0-0.9,0.3-1.6,0.3c-0.6,0-0.9,0.3-1.6,0.3
				c-2.2,0.3-4.4,0.6-6.6,1.3c-2.2,0.3-4.7,0.6-7.2,0.9c-1.3,0.3-2.5,0.3-3.8,0.6c-1.3,0.3-2.5,0.3-3.8,0.3c-2.5,0.3-5,0.6-7.8,0.6
				c-1.3,0-2.5,0.3-4.1,0.3c-1.3,0-2.5,0-4.1,0.3c-1.3,0-2.8,0-4.1,0.3c-1.3,0-2.8,0-4.1,0c-1.3,0-2.8,0-4.1,0c-1.3,0-2.8,0-4.1,0
				c-2.8,0-5.3,0-8.2-0.3c-1.3,0-2.8,0-4.1-0.3c-1.3,0-2.8,0-4.1-0.3c-1.3,0-2.8,0-4.1-0.3c-1.3,0-2.5-0.3-4.1-0.3
				c-2.5-0.3-5.3-0.6-7.8-0.6c-2.5-0.3-5-0.6-7.5-0.9c-1.3-0.3-2.5-0.3-3.5-0.6c-1.3-0.3-2.2-0.3-3.5-0.6c-2.2-0.3-4.4-0.6-6.6-1.3
				c-2.2-0.3-4.1-0.9-6.3-1.3c-0.9-0.3-1.9-0.3-2.8-0.6s-1.9-0.3-2.8-0.6c-1.9-0.3-3.5-0.9-5-1.3c-1.6-0.3-3.1-0.9-4.4-1.3
				c-1.3-0.3-2.5-0.6-3.8-1.3c-4.7-1.3-7.2-2.2-7.2-2.2L213.8,581.7z"/>
		</g>
	</g>
	<g>
		<g>
			<polygon points="553.3,168.7 567.1,175.6 572.8,161.2 577.5,175.9 591.9,169.7 584.7,183.8 599.5,189.4 584.4,194.1 591,208.6 
				576.9,201.4 571.2,216.1 566.5,201 552.1,207.3 559.3,193.5 544.5,187.9 559.6,182.8 			"/>
		</g>
		<g>
			<polygon points="9.1,392.2 23,399.1 28.9,384.6 33.6,399.4 48.1,393.1 40.8,407.2 55.3,412.9 40.5,417.6 46.8,432 33,424.8 
				27.3,439.6 22.3,424.5 8.2,430.8 15.1,417 0.7,411.3 15.4,406.3 			"/>
		</g>
		<g>
			<path stroke="#000000" stroke-miterlimit="10" d="M188.7,28.8"/>
		</g>
		<g>
			<g>
				<path d="M571.8,188.8"/>
			</g>
		</g>
		<g>
			<g>
				<path d="M580.9,386.5c0,0,0-0.6,0.3-1.9c0.3-1.3,0.3-3.1,0.9-5.6c0.3-1.3,0.3-2.5,0.6-3.8c0-1.6,0.3-2.8,0.6-4.7
					c0.3-3.1,0.9-6.9,1.6-11c0.3-1.9,0.6-4.1,0.6-6.3c0.3-2.2,0.3-4.4,0.6-6.6c0-1.3,0.3-2.2,0.3-3.5c0-1.3,0.3-2.5,0.3-3.5
					c0-2.5,0.3-4.7,0.6-7.2c0-2.5,0.3-5,0.3-7.5c0-1.3,0.3-2.5,0.3-3.8c0-1.3,0-2.5,0-3.8s0-2.5,0-4.1c0-1.3,0-2.5,0-4.1
					c0-2.5,0-5.3,0-7.8c0-1.3,0-2.5,0-4.1c0-1.3,0-2.5,0-4.1c0-1.3,0-2.5,0-4.1c0-1.3,0-2.5-0.3-4.1c0-1.3,0-2.5,0-3.8
					c0-1.3,0-2.5-0.3-3.8c-0.3-2.5-0.3-5-0.3-7.5c0-1.3-0.3-2.5-0.3-3.8c0-1.3-0.3-2.5-0.3-3.8c-0.3-2.5-0.3-4.7-0.6-6.9
					c-0.6-4.7-0.9-8.8-1.6-12.9c-0.3-1.9-0.6-3.8-0.6-5.6c-0.3-1.9-0.6-3.5-0.6-5.3c-0.3-1.6-0.3-3.1-0.6-4.7
					c-0.3-1.6-0.3-2.8-0.6-3.8c-0.3-2.2-0.6-4.1-0.6-5.3c-0.3-1.3-0.3-1.9-0.3-1.9l0.6-0.3c0,0,0.6,2.5,2.2,7.2
					c0.3,1.3,0.6,2.5,0.9,3.8c0.3,1.3,0.6,2.8,1.3,4.4c0.3,1.6,0.9,3.5,1.3,5c0.3,1.9,0.9,3.8,1.3,5.6c0.3,0.9,0.3,1.9,0.6,3.1
					c0,0.6,0.3,0.9,0.3,1.6c0,0.6,0.3,0.9,0.3,1.6c0.3,2.2,0.6,4.4,1.3,6.6c0.3,2.2,0.6,4.7,0.9,7.2c0.3,1.3,0.3,2.5,0.6,3.8
					c0.3,1.3,0.3,2.5,0.3,3.8c0.3,2.5,0.6,5,0.6,7.8c0,1.3,0.3,2.5,0.3,4.1c0,1.3,0.3,2.5,0.3,4.1c0,1.3,0.3,2.8,0.3,4.1
					c0,1.3,0,2.8,0,4.1c0,1.3,0,2.8,0,4.1s0,2.8,0,4.1c0,2.8,0,5.3,0,8.2c0,1.3,0,2.8-0.3,4.1c0,1.3,0,2.8-0.3,4.1
					c0,1.3,0,2.5-0.3,4.1c0,1.3-0.3,2.5-0.3,4.1c-0.3,2.5-0.3,5.3-0.6,7.8c-0.3,2.5-0.6,5-0.9,7.5c-0.3,1.3-0.3,2.5-0.6,3.5
					c-0.3,1.3-0.3,2.2-0.6,3.5c-0.3,2.2-0.6,4.4-1.3,6.6c-0.3,2.2-0.9,4.1-1.3,6.3c-0.3,0.9-0.3,1.9-0.6,2.8
					c-0.3,0.9-0.3,1.9-0.6,2.8c-0.3,1.9-0.9,3.5-1.3,5c-0.3,1.6-0.9,3.1-1.3,4.4c-0.3,1.3-0.6,2.5-1.3,3.8c-1.3,4.7-2.2,7.2-2.2,7.2
					L580.9,386.5z"/>
			</g>
		</g>
		<g>
			<g>
				<path d="M19.5,213.9c0,0,0,0.6-0.3,1.9c-0.3,1.3-0.3,3.1-0.9,5.6c-0.3,1.3-0.3,2.5-0.6,3.8c-0.3,1.6-0.3,2.8-0.6,4.7
					c-0.3,3.1-0.9,6.9-1.6,11c-0.3,1.9-0.6,4.1-0.9,6.3c-0.3,2.2-0.6,4.4-0.6,6.6c0,1.3-0.3,2.2-0.3,3.5c0,1.3-0.3,2.5-0.3,3.5
					c0,2.5-0.3,4.7-0.6,7.2c0,2.5-0.3,5-0.3,7.5c0,1.3-0.3,2.5-0.3,3.8s0,2.5,0,3.8c0,1.3,0,2.5,0,4.1c0,1.3,0,2.5,0,4.1
					c0,2.5,0,5.3,0,7.8c0,1.3,0,2.5,0,4.1c0,1.3,0,2.5,0,4.1c0,1.3,0,2.5,0,4.1c0,1.3,0,2.5,0,4.1c0,1.3,0,2.5,0,3.8s0,2.5,0,3.8
					c0.3,2.5,0.3,5,0.3,7.5c0,1.3,0.3,2.5,0.3,3.8s0.3,2.5,0.3,3.8c0.3,2.5,0.3,4.7,0.6,7.2c0.6,4.7,0.9,8.8,1.3,12.9
					c0.3,1.9,0.6,4.1,0.6,5.6c0.3,1.9,0.6,3.5,0.6,5.3c0.3,1.6,0.3,3.1,0.6,4.7c0.3,1.6,0.3,2.8,0.6,3.8c0.3,2.2,0.6,4.1,0.6,5.6
					c0,1.3,0.3,1.9,0.3,1.9l-0.6,0.3c0,0-0.6-2.5-2.2-7.2c-0.3-1.3-0.6-2.5-0.9-3.8c-0.3-1.3-0.6-2.8-1.3-4.4
					c-0.3-1.6-0.9-3.5-1.3-5c-0.3-1.9-0.6-3.8-1.3-5.6c-0.3-0.9-0.3-1.9-0.6-3.1c0-0.6-0.3-0.9-0.3-1.6c0-0.6-0.3-0.9-0.3-1.6
					c-0.3-2.2-0.6-4.4-1.3-6.6c-0.3-2.2-0.6-4.7-0.9-7.2c-0.3-1.3-0.3-2.5-0.6-3.8c-0.3-1.3-0.3-2.5-0.3-3.8c-0.3-2.5-0.6-5-0.6-7.8
					c0-1.3-0.3-2.5-0.3-4.1c0-1.3,0-2.5-0.3-4.1c0-1.3,0-2.8-0.3-4.1c0-1.3,0-2.8,0-4.1c0-1.3,0-2.8,0-4.1s0-2.8,0-4.1
					c0-2.8,0-5.3,0.3-8.2c0-1.3,0-2.8,0.3-4.1c0-1.3,0-2.8,0.3-4.1c0-1.3,0-2.8,0.3-4.1c0-1.3,0.3-2.5,0.3-4.1
					c0.3-2.5,0.6-5.3,0.6-7.8c0.3-2.5,0.6-5,0.9-7.5c0.3-1.3,0.3-2.5,0.6-3.5c0.3-1.3,0.3-2.2,0.6-3.5c0.3-2.2,0.6-4.4,1.3-6.6
					c0.3-2.2,0.9-4.1,1.3-6.3c0.3-0.9,0.3-1.9,0.6-2.8c0.3-0.9,0.3-1.9,0.6-2.8c0.3-1.9,0.9-3.5,1.3-5c0.3-1.6,0.9-3.1,1.3-4.4
					c0.3-1.3,0.6-2.5,1.3-3.8c1.3-4.7,2.2-7.2,2.2-7.2L19.5,213.9z"/>
			</g>
		</g>
	</g>
	<g>
		<g>
			<line fill="none" x1="198.7" y1="55.4" x2="402.1" y2="549.1"/>
		</g>
		<g>
			<path d="M199.3,55.1c0,0,3.8,7.5,10.4,20.7c6.3,13.2,15.1,32,25.1,55.2c1.3,2.8,2.5,6,3.8,8.8c1.3,3.1,2.5,6,3.8,9.1
				c2.5,6.3,5.3,12.6,7.8,19.5c5.3,13.2,10.4,27.6,15.7,42.4c1.3,3.8,2.8,7.5,4.1,11c1.3,3.8,2.8,7.5,4.1,11.3
				c2.8,7.5,6,15.1,9.1,22.6c6.3,15.1,13.2,30.4,20.1,45.5c3.5,7.5,6.9,15.1,10.4,22.6c1.6,3.8,3.5,7.5,5,11.3
				c1.6,3.8,3.5,7.5,5,11.3c6.6,15.1,12.9,29.8,19.1,44.2c6.3,14.4,11.9,28.2,17.3,41.7c1.3,3.5,2.5,6.6,3.8,9.7
				c1.3,3.1,2.5,6.3,3.8,9.7c2.5,6.3,4.7,12.2,6.9,18.2c4.4,11.6,8.5,22.6,11.9,32c0.9,2.5,1.6,4.7,2.5,6.9c0.9,2.2,1.6,4.4,2.2,6.6
				c1.6,4.1,2.8,7.8,4.1,11.3c4.7,13.8,7.2,21.7,7.2,21.7l-0.9,0.3c0,0-3.8-7.5-10-20.7c-1.6-3.1-3.5-6.9-5.3-11
				c-0.9-1.9-1.9-4.1-2.8-6.3c-0.9-2.2-1.9-4.4-3.1-6.6c-4.4-9.1-9.1-19.8-14.1-31.1c-2.5-5.6-5-11.6-7.8-17.9
				c-1.3-3.1-2.8-6.3-4.1-9.4s-2.8-6.6-4.1-9.7c-5.6-13.2-11.3-27.3-17.3-41.7c-5.6-14.4-11.6-29.5-17.6-44.9
				c-1.6-3.8-2.8-7.5-4.4-11.6c-1.6-3.8-2.8-7.8-4.4-11.6c-2.8-7.8-5.6-15.7-8.5-23.5c-5.6-15.7-11.6-31.4-17.9-46.4
				c-3.1-7.5-6.3-15.1-9.4-22.6c-1.6-3.8-3.1-7.2-5-11c-1.6-3.5-3.1-7.2-5-10.7c-6.6-14.1-13.2-27.9-18.8-41.1
				c-2.8-6.6-5.6-12.9-8.2-19.1c-1.3-3.1-2.5-6.3-3.8-9.1c-1.3-3.1-2.5-6-3.5-8.8c-9.1-23.2-16.3-43-21-56.8s-7.2-22-7.2-22H199.3z"
				/>
		</g>
	</g>
	<g>
		<g>
			<line fill="none" x1="537" y1="187.9" x2="63.4" y2="186.3"/>
		</g>
		<g>
			<path d="M537,187.9c0,0-1.9,0-5.3,0.3c-3.5,0-8.5,0.3-15.1,0.6c-6.6,0.3-14.4,0.6-23.2,0.6c-4.4,0-9.4,0.3-14.4,0.3
				c-5,0-10.4,0.3-16,0.3c-5.6,0-11.3,0.3-17.3,0.3c-6,0-12.2,0.3-18.5,0.3c-12.9,0.3-26,0.3-39.9,0.6c-6.9,0-14.1,0-21,0.3
				c-7.2,0-14.4,0-21.7,0c-14.4,0-29.5,0-44.3,0c-14.8,0-29.5,0-44.2-0.3c-3.8,0-7.2,0-11,0c-3.5,0-7.2,0-10.7,0
				c-7.2,0-14.1-0.3-21-0.3c-13.8-0.3-27.3-0.6-39.9-0.6c-6.3,0-12.6-0.3-18.5-0.3c-6-0.3-11.6-0.3-17.3-0.6s-11-0.3-16-0.6
				s-9.7-0.3-14.4-0.6c-9.1-0.3-16.9-0.6-23.2-0.9c-6.6-0.3-11.6-0.6-15.1-0.6c-3.5-0.3-5.3-0.3-5.3-0.3s1.9,0,5.3-0.3
				c3.5,0,8.5-0.3,15.1-0.6c6.6-0.3,14.4-0.6,23.2-0.6c4.4,0,9.4-0.3,14.4-0.3s10.4-0.3,16-0.3c5.6,0,11.3-0.3,17.3-0.3
				c6,0,12.2-0.3,18.5-0.3c12.9-0.3,26-0.3,39.9-0.6c6.9,0,14.1,0,21-0.3c3.5,0,7.2,0,10.7,0s7.2,0,11,0c14.4,0,29.5,0,44.2,0
				c14.8,0,29.5,0,44.3,0.3c7.2,0,14.4,0.3,21.7,0.3s14.1,0.3,21,0.3c13.8,0.3,27.3,0.6,39.9,0.6c6.3,0,12.6,0.3,18.5,0.3
				c6,0.3,11.6,0.3,17.3,0.6c5.6,0.3,11,0.3,16,0.6c5,0.3,9.7,0.3,14.4,0.6c9.1,0.3,16.9,0.6,23.2,0.9c6.6,0.3,11.6,0.6,15.1,0.6
				C535.1,187.9,537,187.9,537,187.9z"/>
		</g>
	</g>
	<g>
		<g>
			<line fill="none" x1="538.3" y1="412.6" x2="60.9" y2="412.6"/>
		</g>
		<g>
			<path d="M538.3,412.6c0,0-1.9,0-5.3,0.3c-3.5,0-8.5,0.3-15.1,0.6c-6.6,0.3-14.4,0.3-23.5,0.6c-9.1,0.3-19.5,0.6-30.4,0.6
				c-5.6,0-11.3,0.3-17.6,0.3c-6,0-12.2,0.3-18.5,0.3c-12.9,0.3-26.4,0.3-40.2,0.6c-6.9,0-14.1,0-21.3,0.3c-3.5,0-7.2,0-11,0
				s-7.2,0-11,0c-14.8,0-29.5,0-44.6,0c-15.1,0-29.8,0-44.6,0c-3.8,0-7.2,0-11,0s-7.2,0-11,0c-7.2,0-14.4,0-21.3-0.3
				c-14.1,0-27.6-0.3-40.2-0.6c-6.3,0-12.6-0.3-18.5-0.3c-6,0-11.9-0.3-17.6-0.3c-5.6,0-11-0.3-16-0.3s-10-0.3-14.4-0.3
				c-9.1-0.3-16.9-0.6-23.5-0.6c-6.6-0.3-11.6-0.3-15.1-0.6c-3.5,0-5.3-0.3-5.3-0.3s1.9,0,5.3-0.3c3.5,0,8.5-0.3,15.1-0.6
				c6.6-0.3,14.4-0.3,23.5-0.6c4.4,0,9.4-0.3,14.4-0.3s10.4-0.3,16-0.3c5.6,0,11.3-0.3,17.6-0.3c6,0,12.2-0.3,18.5-0.3
				c12.9-0.3,26.4-0.3,40.2-0.6c6.9,0,14.1,0,21.3-0.3c3.5,0,7.2,0,11,0s7.2,0,11,0c14.8,0,29.5,0,44.6,0c15.1,0,29.8,0,44.6,0
				c3.8,0,7.2,0,11,0s7.2,0,11,0c7.2,0,14.4,0,21.3,0.3c14.1,0,27.6,0.3,40.2,0.6c6.3,0,12.6,0.3,18.5,0.3c6,0,11.9,0.3,17.6,0.3
				c11.3,0.3,21.3,0.6,30.4,0.6c9.1,0.3,16.9,0.6,23.5,0.6c6.6,0.3,11.6,0.3,15.1,0.6C536.4,412.6,538.3,412.6,538.3,412.6z"/>
		</g>
	</g>
	<g>
		<g>
			<polygon points="385.7,28.8 400.8,23.7 394.2,9.6 408.3,16.5 414,2.1 418.7,16.8 433.1,10.5 425.9,24.4 440.7,30.3 425.6,35 
				431.9,49.5 418.1,42.2 412.4,56.7 407.7,41.9 393.3,48.2 400.5,34.4 			"/>
		</g>
		<g>
			<polygon points="159.2,571.4 173.9,566.3 167.6,552.2 181.8,559.1 187.4,544.7 192.1,559.4 206.5,553.2 199.3,567.3 213.8,572.9 
				199,577.6 205.3,592.1 191.5,584.9 185.8,599.6 180.8,584.5 166.7,590.8 173.6,577 			"/>
		</g>
		<g>
			<path stroke="#000000" stroke-miterlimit="10" d="M29.2,187.2"/>
		</g>
		<g>
			<g>
				<path d="M413.4,29.7"/>
			</g>
		</g>
		<g>
			<g>
				<path d="M559.6,163.1c0,0-0.3-0.6-1.3-1.6c-0.6-0.9-1.9-2.5-3.5-4.4c-0.6-0.9-1.6-1.9-2.2-3.1c-0.9-1.3-1.9-2.5-2.8-3.8
					c-1.9-2.5-4.1-5.6-6.6-8.8c-1.3-1.6-2.5-3.1-3.8-5c-1.3-1.6-2.8-3.5-4.1-5.3c-0.6-0.9-1.6-1.9-2.2-2.8c-0.6-0.9-1.6-1.9-2.2-2.8
					c-1.6-1.9-3.1-3.8-4.7-5.6s-3.5-3.8-5-5.6c-0.9-0.9-1.6-1.9-2.5-2.8c-0.9-0.9-1.9-1.9-2.8-2.8c-0.9-0.9-1.9-1.9-2.8-2.8
					c-0.9-0.9-1.9-1.9-2.8-2.8c-1.9-1.9-3.8-3.8-5.6-5.6c-0.9-0.9-1.9-1.9-2.8-2.8c-0.9-0.9-1.9-1.9-2.8-2.8
					c-0.9-0.9-1.9-1.9-2.8-2.8c-0.9-0.9-1.9-1.9-2.8-2.8c-0.9-0.9-1.9-1.9-2.8-2.5c-0.9-0.9-1.9-1.9-2.8-2.5c-1.9-1.6-3.8-3.5-5.6-5
					c-0.9-0.9-1.9-1.6-2.8-2.5c-0.9-0.6-1.9-1.6-2.8-2.5c-1.9-1.6-3.5-3.1-5.3-4.7c-3.8-2.8-6.9-5.6-10-8.2
					c-1.6-1.3-3.1-2.5-4.7-3.5c-1.6-1.3-2.8-2.2-4.1-3.1s-2.5-1.9-3.8-2.8c-1.3-0.9-2.2-1.6-3.1-2.2c-1.9-1.3-3.5-2.5-4.4-3.5
					c-0.9-0.9-1.6-1.3-1.6-1.3l0.3-0.6c0,0,2.5,1.3,6.6,3.5c0.9,0.6,2.2,1.3,3.5,1.9c1.3,0.6,2.5,1.6,4.1,2.5s2.8,1.9,4.4,2.8
					c1.6,0.9,3.1,2.2,5,3.1c0.9,0.6,1.6,1.3,2.5,1.6c0.3,0.3,0.9,0.6,1.3,0.9c0.3,0.3,0.9,0.6,1.3,0.9c1.9,1.3,3.8,2.5,5.6,4.1
					c1.9,1.3,3.8,2.8,5.6,4.4c0.9,0.6,1.9,1.6,2.8,2.2c0.9,0.6,1.9,1.6,2.8,2.2c1.9,1.6,4.1,3.1,6,5c0.9,0.9,1.9,1.6,3.1,2.5
					c0.9,0.9,1.9,1.9,3.1,2.5c0.9,0.9,1.9,1.9,3.1,2.8c0.9,0.9,1.9,1.9,2.8,2.8c0.9,0.9,1.9,1.9,2.8,2.8c0.9,0.9,1.9,1.9,2.8,2.8
					c1.9,1.9,3.8,3.8,5.6,6c0.9,0.9,1.9,1.9,2.8,2.8c0.9,0.9,1.9,1.9,2.8,3.1c0.9,0.9,1.9,1.9,2.5,2.8c0.9,0.9,1.6,1.9,2.5,3.1
					c1.6,1.9,3.5,4.1,5,6c1.6,1.9,3.1,4.1,4.7,6c0.6,0.9,1.6,1.9,2.2,2.8c0.6,0.9,1.3,1.9,2.2,2.8c1.3,1.9,2.8,3.8,4.1,5.6
					c1.3,1.9,2.5,3.8,3.5,5.3c0.6,0.9,1.3,1.6,1.6,2.5c0.6,0.9,0.9,1.6,1.6,2.5c0.9,1.6,1.9,3.1,2.8,4.4c0.9,1.6,1.6,2.8,2.5,4.1
					c0.6,1.3,1.3,2.5,1.9,3.5c2.2,4.1,3.5,6.6,3.5,6.6L559.6,163.1z"/>
			</g>
		</g>
		<g>
			<g>
				<path d="M40.5,438c0,0,0.3,0.6,1.3,1.6c0.6,0.9,1.9,2.5,3.5,4.4c0.6,0.9,1.6,2.2,2.2,3.1c0.9,1.3,1.9,2.5,2.8,3.8
					c1.9,2.5,4.1,5.6,6.6,8.8c1.3,1.6,2.5,3.1,3.8,5c1.3,1.6,2.8,3.5,4.1,5.3c0.6,0.9,1.6,1.9,2.2,2.8c0.6,0.9,1.6,1.9,2.2,2.8
					c1.6,1.9,3.1,3.8,4.7,5.6c1.6,1.9,3.5,3.8,5,5.6c0.9,0.9,1.6,1.9,2.5,2.8c0.9,0.9,1.9,1.9,2.5,2.8c0.9,0.9,1.9,1.9,2.8,2.8
					c0.9,0.9,1.9,1.9,2.8,2.8c1.9,1.9,3.8,3.8,5.6,5.6c0.9,0.9,1.9,1.9,2.8,2.8c0.9,0.9,1.9,1.9,2.8,2.8c0.9,0.9,1.9,1.9,2.8,2.8
					s1.9,1.9,2.8,2.8c0.9,0.9,1.9,1.9,2.8,2.8c0.9,0.9,1.9,1.9,2.8,2.5c1.9,1.6,3.8,3.5,5.6,5c0.9,0.9,1.9,1.6,2.8,2.5
					c0.9,0.6,1.9,1.6,2.8,2.5c1.9,1.6,3.5,3.1,5.3,4.7c3.5,2.8,6.9,5.6,10,8.2c1.6,1.3,3.1,2.5,4.7,3.5c1.6,1.3,2.8,2.2,4.1,3.1
					c1.3,0.9,2.5,1.9,3.8,2.8c1.3,0.9,2.2,1.6,3.1,2.2c1.9,1.3,3.5,2.5,4.4,3.5c0.9,0.9,1.6,1.3,1.6,1.3l-0.3,0.6
					c0,0-2.5-1.3-6.6-3.8c-0.9-0.6-2.2-1.3-3.5-1.9c-1.3-0.6-2.5-1.6-4.1-2.5c-1.6-0.9-2.8-1.9-4.4-2.8c-1.6-0.9-3.1-2.2-5-3.1
					c-0.9-0.6-1.6-1.3-2.5-1.6c-0.3-0.3-0.9-0.6-1.3-0.9c-0.3-0.3-0.9-0.6-1.3-0.9c-1.9-1.3-3.8-2.5-5.6-4.1
					c-1.9-1.3-3.8-2.8-5.6-4.4c-0.9-0.6-1.9-1.6-2.8-2.2c-0.9-0.6-1.9-1.6-2.8-2.5c-1.9-1.6-4.1-3.1-6-5c-0.9-0.9-1.9-1.6-3.1-2.5
					c-0.9-0.9-1.9-1.9-3.1-2.5c-0.9-0.9-1.9-1.9-3.1-2.8c-0.9-0.9-1.9-1.9-2.8-2.8c-0.9-0.9-1.9-1.9-2.8-2.8
					c-0.9-0.9-1.9-1.9-2.8-2.8c-1.9-1.9-3.8-4.1-5.6-6c-0.9-0.9-1.9-1.9-2.8-3.1c-0.9-0.9-1.9-1.9-2.8-3.1c-0.9-0.9-1.9-1.9-2.5-3.1
					c-0.9-0.9-1.6-1.9-2.5-3.1c-1.6-1.9-3.5-4.1-5-6c-1.6-1.9-3.1-4.1-4.7-6c-0.6-0.9-1.6-1.9-2.2-2.8c-0.6-0.9-1.3-1.9-2.2-2.8
					c-1.3-1.9-2.5-3.8-4.1-5.6c-1.3-1.9-2.5-3.8-3.5-5.3c-0.6-0.9-1.3-1.6-1.6-2.5c-0.6-0.9-0.9-1.6-1.6-2.5
					c-0.9-1.6-1.9-3.1-2.8-4.4c-0.9-1.6-1.6-2.8-2.5-4.1c-0.6-1.3-1.3-2.5-1.9-3.5c-2.2-4.1-3.5-6.6-3.5-6.6L40.5,438z"/>
			</g>
		</g>
	</g>
</g>
</svg>
