<?xml version="1.0" encoding="utf-8"?>
<!-- Generator: Adobe Illustrator 18.1.1, SVG Export Plug-In . SVG Version: 6.00 Build 0)  -->
<svg version="1.1" id="Layer_1" xmlns="http://www.w3.org/2000/svg" xmlns:xlink="http://www.w3.org/1999/xlink" x="0px" y="0px"
	 viewBox="0 0 600 600" enable-background="new 0 0 600 600" xml:space="preserve">
<circle cx="300" cy="301.4" r="291"/>
<g>
	<g>
		<polygon fill="#FFFFFF" points="516.3,368.7 520.3,380.6 531.5,375.6 526,386.6 537.5,391.1 525.8,395.1 530.7,406.3 519.5,400.8 
			515,412.3 511.3,400.5 499.8,405.5 505.6,394.3 493.9,389.8 505.8,386.1 500.8,374.6 511.8,380.4 		"/>
	</g>
	<g>
		<polygon fill="#FFFFFF" points="85.5,188.7 89.2,200.7 100.7,195.5 94.9,206.7 106.6,211.2 94.7,214.9 99.9,226.4 88.7,220.6 
			84.2,232.3 80.5,220.4 69,225.4 74.7,214.4 63,209.9 75,206.2 70,194.7 81,200.5 		"/>
	</g>
	<g>
		<path fill="#FFFFFF" stroke="#000000" stroke-miterlimit="10" d="M390.2,85.6"/>
	</g>
	<g>
		<path fill="#FFFFFF" d="M515.5,390.6"/>
	</g>
	<g>
		<path fill="#FFFFFF" d="M409.6,506.7c0,0,1.7-1.5,4.7-3.5c0.7-0.5,1.7-1.2,2.5-1.7c1-0.7,2-1.5,3-2.2c1-0.7,2.2-1.5,3.5-2.2
			c1.2-0.7,2.5-1.7,3.7-2.7c1.2-1,2.7-2,4-2.7c1.5-1,2.7-2,4.5-3c0.7-0.5,1.5-1,2.2-1.5c0.7-0.5,1.5-1,2.5-1.5c1.7-1,3.2-2,5-3.2
			c0.7-0.5,1.7-1.2,2.5-1.7c0.7-0.5,1.7-1.2,2.5-1.7c0.7-0.7,1.7-1.2,2.5-2c0.7-0.7,1.5-1.5,2.2-2c0.7-0.7,1.5-1.5,2.2-2.2l1.2-1
			c0.5-0.2,0.7-0.7,1-1.2c0.7-0.7,1.5-1.5,2.2-2.5l2.2-2.5c0.7-0.7,1.5-1.7,2-2.5c0.7-0.7,1.2-1.7,2-2.5c0.7-0.7,1.5-1.7,2-2.5
			c0.7-0.7,1.2-1.7,2-2.5c0.7-0.7,1.2-1.5,2-2.5c0.7-0.7,1.2-1.5,2-2.5c1.2-1.7,2.5-3.2,3.7-4.7c0.2-0.5,0.5-0.7,1-1.2
			c0.2-0.5,0.5-0.7,1-1.2c0.5-0.7,1.2-1.5,1.7-2.2c1.2-1.5,2.2-3,3.5-4.5c1-1.5,2.2-3,3.2-4.2c0.2-0.2,0.5-0.7,0.7-1
			c0.2-0.2,0.5-0.7,0.7-1c0.5-0.7,1-1.2,1.5-2c1-1.2,2-2.5,2.7-3.7c0.7-1.2,1.7-2.2,2.5-3.5c0.7-1,1.5-2,2.2-3
			c0.7-1,1.2-1.7,1.7-2.5c2.2-3,3.5-4.7,3.5-4.7l0.5,0.2c0,0-0.7,2-2.2,5.5c-0.7,1.7-1.7,3.7-3,6.2c-0.5,1.2-1.2,2.5-2,3.7
			s-1.5,2.7-2.2,4c-0.7,1.5-1.7,3-2.7,4.2c-1,1.5-2,3-3,4.5c-0.5,0.7-1,1.5-1.7,2.2c-0.5,0.7-1.2,1.5-1.7,2.2
			c-0.5,0.7-1.2,1.5-1.7,2.2c-0.5,0.7-1.2,1.5-2,2.2c-1.2,1.5-2.7,3-4,4.7c-0.7,0.7-1.5,1.5-2.2,2.2c-0.7,0.7-1.5,1.5-2.2,2.2
			c-0.7,0.7-1.5,1.5-2.2,2.2c-0.7,0.7-1.5,1.5-2.5,2.2c-0.7,0.7-1.5,1.5-2.5,2.2c-0.7,0.7-1.5,1.5-2.5,2.2l-2.5,2
			c-0.7,0.7-1.7,1.5-2.5,2c-0.7,0.7-1.7,1.5-2.5,2c-0.7,0.7-1.7,1.5-2.5,2c-1.5,1.5-3.2,2.7-4.7,4.2c-1.5,1.5-3,3-4.5,4.2
			c-1.5,1.5-3,2.7-4.5,4c-0.7,0.7-1.5,1.2-2.2,2c-0.7,0.5-1.5,1.2-2.2,1.7c-1.5,1.2-3,2.2-4.5,3.2c-1.5,1-3,1.7-4.2,2.7
			c-0.7,0.5-1.5,0.7-2,1.2c-0.7,0.5-1.2,0.7-2,1.2c-1.2,0.7-2.5,1.2-3.7,2c-1.2,0.5-2.2,1.2-3.2,1.7c-1,0.5-2,1-3,1.2
			c-3.5,1.5-5.5,2.2-5.5,2.2L409.6,506.7z"/>
	</g>
	<g>
		<path fill="#FFFFFF" d="M191.4,94.6c0,0-0.5,0.2-1.2,1c-0.7,0.5-2,1.5-3.5,2.7c-0.7,0.5-1.7,1.2-2.5,1.7c-1,0.7-2,1.5-3,2.2
			c-2,1.5-4.5,3.2-7,5.2c-1.2,1-2.5,2-4,3c-1.2,1-2.7,2.2-4.2,3.2c-0.7,0.5-1.5,1.2-2.2,1.7s-1.5,1.2-2.2,1.7
			c-1.5,1.2-3,2.5-4.5,3.7c-1.5,1.2-3,2.7-4.5,4c-0.7,0.7-1.5,1.2-2.2,2c-0.7,0.7-1.5,1.5-2.2,2c-0.7,0.7-1.5,1.5-2.2,2.2
			c-0.7,0.7-1.5,1.5-2.2,2.2c-1.5,1.5-3,3-4.5,4.5c-0.7,0.7-1.5,1.5-2.2,2.2c-0.7,0.7-1.5,1.5-2.2,2.2c-0.7,0.7-1.5,1.5-2.2,2.2
			c-0.7,0.7-1.5,1.5-2.2,2.2c-0.7,0.7-1.5,1.5-2.2,2.2c-0.7,0.7-1.5,1.5-2,2.2c-1.2,1.5-2.7,3-4,4.5c-0.7,0.7-1.2,1.5-2,2.2
			c-0.5,0.7-1.2,1.5-2,2.2c-1.2,1.5-2.5,2.7-3.7,4.2c-2.2,2.7-4.5,5.5-6.5,8c-1,1.2-2,2.5-2.7,3.7c-1,1.2-1.7,2.2-2.5,3.2
			c-0.7,1-1.5,2-2.2,3c-0.7,1-1.2,1.7-1.7,2.5c-1,1.5-2,2.7-2.7,3.5c-0.7,0.7-1,1.2-1,1.2l-0.5-0.2c0,0,1-2,3-5.2
			c0.5-0.7,1-1.7,1.5-2.7c0.5-1,1.2-2,2-3.2c0.7-1.2,1.5-2.2,2.2-3.5c0.7-1.2,1.7-2.5,2.5-4c0.5-0.7,1-1.2,1.2-2
			c0.2-0.2,0.5-0.7,0.7-1c0.2-0.2,0.5-0.7,0.7-1c1-1.5,2-3,3.2-4.5c1-1.5,2.2-3,3.5-4.5c0.5-0.7,1.2-1.5,1.7-2.2
			c0.5-0.7,1.2-1.5,2-2.2c1.2-1.5,2.5-3.2,4-4.7c0.7-0.7,1.2-1.5,2-2.5c0.7-0.7,1.5-1.5,2-2.5c0.7-0.7,1.5-1.5,2.2-2.5
			c0.7-0.7,1.5-1.5,2.2-2.2c0.7-0.7,1.5-1.5,2.2-2.2c0.7-0.7,1.5-1.5,2.2-2.2c1.5-1.5,3.2-3,4.7-4.5c0.7-0.7,1.5-1.5,2.5-2.2
			c0.7-0.7,1.5-1.5,2.5-2.2c0.7-0.7,1.5-1.5,2.5-2c0.7-0.7,1.5-1.2,2.5-2c1.5-1.2,3.2-2.7,4.7-4c1.5-1.2,3.2-2.5,4.7-3.7
			c0.7-0.5,1.5-1.2,2.2-1.7s1.5-1,2.2-1.7c1.5-1,3-2,4.5-3.2c1.5-1,3-2,4.2-2.7c0.7-0.5,1.2-1,2-1.2c0.7-0.5,1.2-0.7,2-1.2
			c1.2-0.7,2.5-1.5,3.5-2.2c1.2-0.7,2.2-1.2,3.2-2c1-0.5,2-1,2.7-1.5c3.2-1.7,5.2-2.7,5.2-2.7L191.4,94.6z"/>
	</g>
	<g>
		<polygon fill="#FFFFFF" points="195.3,100.3 201.1,89.3 189.6,84.8 201.3,80.8 196.3,69.6 207.3,75.1 211.8,63.7 215.8,75.4 
			227,70.4 221.5,81.6 233,86.1 221.3,89.8 226.2,101.3 215.3,95.5 210.5,107.3 206.8,95.3 		"/>
	</g>
	<g>
		<polygon fill="#FFFFFF" points="372.8,532.4 378.5,521.2 367,516.7 378.7,512.9 373.8,501.5 384.7,507.2 389.2,495.5 393.2,507.4 
			404.4,502.5 398.9,513.4 410.4,517.9 398.7,521.9 403.7,533.1 392.4,527.6 388,539.1 384.2,527.4 		"/>
	</g>
	<g>
		<path fill="#FFFFFF" stroke="#000000" stroke-miterlimit="10" d="M84.2,389.6"/>
	</g>
	<g>
		<g>
			<path fill="#FFFFFF" d="M211.5,85.3"/>
		</g>
	</g>
	<g>
		<g>
			<path fill="#FFFFFF" d="M368.5,78.1c0,0-0.5,0-1.5-0.2c-1-0.2-2.5-0.2-4.5-0.7c-1-0.2-2-0.2-3-0.5c-1.2,0-2.2-0.2-3.7-0.5
				c-2.5-0.2-5.5-0.7-8.7-1.2c-1.5-0.2-3.2-0.5-5-0.5c-1.7-0.2-3.5-0.2-5.2-0.5c-1,0-1.7-0.2-2.7-0.2s-2-0.2-2.7-0.2
				c-2,0-3.7-0.2-5.7-0.5c-2,0-4-0.2-6-0.2c-1,0-2-0.2-3-0.2c-1,0-2,0-3,0c-1,0-2,0-3.2,0c-1,0-2,0-3.2,0c-2,0-4.2,0-6.2,0
				c-1,0-2,0-3.2,0c-1,0-2,0-3.2,0c-1,0-2,0-3.2,0c-1,0-2,0-3.2,0.2c-1,0-2,0-3,0c-1,0-2,0-3,0.2c-2,0.2-4,0.2-6,0.2
				c-1,0-2,0.2-3,0.2c-1,0-2,0.2-3,0.2c-2,0.2-3.7,0.2-5.5,0.5c-3.7,0.5-7,0.7-10.2,1.2c-1.5,0.2-3,0.5-4.5,0.5
				c-1.5,0.2-2.7,0.5-4.2,0.5c-1.2,0.2-2.5,0.2-3.7,0.5s-2.2,0.2-3,0.5c-1.7,0.2-3.2,0.5-4.2,0.5c-1,0.2-1.5,0.2-1.5,0.2l-0.2-0.5
				c0,0,2-0.5,5.7-1.7c1-0.2,2-0.5,3-0.7c1-0.2,2.2-0.5,3.5-1c1.2-0.2,2.7-0.7,4-1c1.5-0.2,3-0.7,4.5-1c0.7-0.2,1.5-0.2,2.5-0.5
				c0.5,0,0.7-0.2,1.2-0.2c0.5,0,0.7-0.2,1.2-0.2c1.7-0.2,3.5-0.5,5.2-1c1.7-0.2,3.7-0.5,5.7-0.7c1-0.2,2-0.2,3-0.5
				c1-0.2,2-0.2,3-0.2c2-0.2,4-0.5,6.2-0.5c1,0,2-0.2,3.2-0.2c1,0,2-0.2,3.2-0.2c1,0,2.2-0.2,3.2-0.2c1,0,2.2,0,3.2,0
				c1,0,2.2,0,3.2,0c1,0,2.2,0,3.2,0c2.2,0,4.2,0,6.5,0c1,0,2.2,0,3.2,0.2c1,0,2.2,0,3.2,0.2c1,0,2,0,3.2,0.2c1,0,2,0.2,3.2,0.2
				c2,0.2,4.2,0.2,6.2,0.5c2,0.2,4,0.5,6,0.7c1,0.2,2,0.2,2.7,0.5c1,0.2,1.7,0.2,2.7,0.5c1.7,0.2,3.5,0.5,5.2,1c1.7,0.2,3.2,0.7,5,1
				c0.7,0.2,1.5,0.2,2.2,0.5c0.7,0.2,1.5,0.2,2.2,0.5c1.5,0.2,2.7,0.7,4,1c1.2,0.2,2.5,0.7,3.5,1c1,0.2,2,0.5,3,1
				c3.7,1,5.7,1.7,5.7,1.7L368.5,78.1z"/>
		</g>
	</g>
	<g>
		<g>
			<path fill="#FFFFFF" d="M231.5,524.1c0,0,0.5,0,1.5,0.2c1,0.2,2.5,0.2,4.5,0.7c1,0.2,2,0.2,3,0.5c1.2,0.2,2.2,0.2,3.7,0.5
				c2.5,0.2,5.5,0.7,8.7,1.2c1.5,0.2,3.2,0.5,5,0.7s3.5,0.5,5.2,0.5c1,0,1.7,0.2,2.7,0.2c1,0,2,0.2,2.7,0.2c2,0,3.7,0.2,5.7,0.5
				c2,0,4,0.2,6,0.2c1,0,2,0.2,3,0.2c1,0,2,0,3,0c1,0,2,0,3.2,0c1,0,2,0,3.2,0c2,0,4.2,0,6.2,0c1,0,2,0,3.2,0c1,0,2,0,3.2,0
				c1,0,2,0,3.2,0c1,0,2,0,3.2,0c1,0,2,0,3,0c1,0,2,0,3,0c2-0.2,4-0.2,6-0.2c1,0,2-0.2,3-0.2c1,0,2-0.2,3-0.2c2-0.2,3.7-0.2,5.7-0.5
				c3.7-0.5,7-0.7,10.2-1c1.5-0.2,3.2-0.5,4.5-0.5c1.5-0.2,2.7-0.5,4.2-0.5c1.2-0.2,2.5-0.2,3.7-0.5c1.2-0.2,2.2-0.2,3-0.5
				c1.7-0.2,3.2-0.5,4.5-0.5c1,0,1.5-0.2,1.5-0.2l0.2,0.5c0,0-2,0.5-5.7,1.7c-1,0.2-2,0.5-3,0.7c-1,0.2-2.2,0.5-3.5,1
				c-1.2,0.2-2.7,0.7-4,1c-1.5,0.2-3,0.5-4.5,1c-0.7,0.2-1.5,0.2-2.5,0.5c-0.5,0-0.7,0.2-1.2,0.2c-0.5,0-0.7,0.2-1.2,0.2
				c-1.7,0.2-3.5,0.5-5.2,1c-1.7,0.2-3.7,0.5-5.7,0.7c-1,0.2-2,0.2-3,0.5c-1,0.2-2,0.2-3,0.2c-2,0.2-4,0.5-6.2,0.5
				c-1,0-2,0.2-3.2,0.2c-1,0-2,0-3.2,0.2c-1,0-2.2,0-3.2,0.2c-1,0-2.2,0-3.2,0c-1,0-2.2,0-3.2,0c-1,0-2.2,0-3.2,0
				c-2.2,0-4.2,0-6.5-0.2c-1,0-2.2,0-3.2-0.2c-1,0-2.2,0-3.2-0.2c-1,0-2.2,0-3.2-0.2c-1,0-2-0.2-3.2-0.2c-2-0.2-4.2-0.5-6.2-0.5
				c-2-0.2-4-0.5-6-0.7c-1-0.2-2-0.2-2.7-0.5c-1-0.2-1.7-0.2-2.7-0.5c-1.7-0.2-3.5-0.5-5.2-1c-1.7-0.2-3.2-0.7-5-1
				c-0.7-0.2-1.5-0.2-2.2-0.5c-0.7-0.2-1.5-0.2-2.2-0.5c-1.5-0.2-2.7-0.7-4-1c-1.2-0.2-2.5-0.7-3.5-1c-1-0.2-2-0.5-3-1
				c-3.7-1-5.7-1.7-5.7-1.7L231.5,524.1z"/>
		</g>
	</g>
	<g>
		<g>
			<polygon fill="#FFFFFF" points="501.1,196.2 512.1,201.7 516.5,190.2 520.3,201.9 531.7,197 526,208.2 537.7,212.7 525.8,216.4 
				531,227.9 519.8,222.1 515.3,233.8 511.6,221.9 500.1,226.9 505.8,215.9 494.1,211.4 506.1,207.4 			"/>
		</g>
		<g>
			<polygon fill="#FFFFFF" points="69,373.6 80,379.1 84.7,367.7 88.4,379.4 99.9,374.4 94.2,385.6 105.6,390.1 93.9,393.8 
				98.9,405.3 87.9,399.6 83.5,411.3 79.5,399.3 68.3,404.3 73.7,393.3 62.3,388.8 74,384.9 			"/>
		</g>
		<g>
			<path fill="#FFFFFF" stroke="#000000" stroke-miterlimit="10" d="M211.5,85.1"/>
		</g>
		<g>
			<g>
				<path fill="#FFFFFF" d="M515.8,212.2"/>
			</g>
		</g>
		<g>
			<g>
				<path fill="#FFFFFF" d="M523,369.2c0,0,0-0.5,0.2-1.5c0.2-1,0.2-2.5,0.7-4.5c0.2-1,0.2-2,0.5-3c0-1.2,0.2-2.2,0.5-3.7
					c0.2-2.5,0.7-5.5,1.2-8.7c0.2-1.5,0.5-3.2,0.5-5c0.2-1.7,0.2-3.5,0.5-5.2c0-1,0.2-1.7,0.2-2.7c0-1,0.2-2,0.2-2.7
					c0-2,0.2-3.7,0.5-5.7c0-2,0.2-4,0.2-6c0-1,0.2-2,0.2-3s0-2,0-3c0-1,0-2,0-3.2c0-1,0-2,0-3.2c0-2,0-4.2,0-6.2c0-1,0-2,0-3.2
					c0-1,0-2,0-3.2c0-1,0-2,0-3.2c0-1,0-2-0.2-3.2c0-1,0-2,0-3s0-2-0.2-3c-0.2-2-0.2-4-0.2-6c0-1-0.2-2-0.2-3c0-1-0.2-2-0.2-3
					c-0.2-2-0.2-3.7-0.5-5.5c-0.5-3.7-0.7-7-1.2-10.2c-0.2-1.5-0.5-3-0.5-4.5c-0.2-1.5-0.5-2.7-0.5-4.2c-0.2-1.2-0.2-2.5-0.5-3.7
					s-0.2-2.2-0.5-3c-0.2-1.7-0.5-3.2-0.5-4.2c-0.2-1-0.2-1.5-0.2-1.5l0.5-0.2c0,0,0.5,2,1.7,5.7c0.2,1,0.5,2,0.7,3
					c0.2,1,0.5,2.2,1,3.5c0.2,1.2,0.7,2.7,1,4c0.2,1.5,0.7,3,1,4.5c0.2,0.7,0.2,1.5,0.5,2.5c0,0.5,0.2,0.7,0.2,1.2s0.2,0.7,0.2,1.2
					c0.2,1.7,0.5,3.5,1,5.2c0.2,1.7,0.5,3.7,0.7,5.7c0.2,1,0.2,2,0.5,3s0.2,2,0.2,3c0.2,2,0.5,4,0.5,6.2c0,1,0.2,2,0.2,3.2
					c0,1,0.2,2,0.2,3.2c0,1,0.2,2.2,0.2,3.2s0,2.2,0,3.2s0,2.2,0,3.2s0,2.2,0,3.2c0,2.2,0,4.2,0,6.5c0,1,0,2.2-0.2,3.2
					c0,1,0,2.2-0.2,3.2c0,1,0,2-0.2,3.2c0,1-0.2,2-0.2,3.2c-0.2,2-0.2,4.2-0.5,6.2c-0.2,2-0.5,4-0.7,6c-0.2,1-0.2,2-0.5,2.7
					c-0.2,1-0.2,1.7-0.5,2.7c-0.2,1.7-0.5,3.5-1,5.2c-0.2,1.7-0.7,3.2-1,5c-0.2,0.7-0.2,1.5-0.5,2.2c-0.2,0.7-0.2,1.5-0.5,2.2
					c-0.2,1.5-0.7,2.7-1,4c-0.2,1.2-0.7,2.5-1,3.5c-0.2,1-0.5,2-1,3c-1,3.7-1.7,5.7-1.7,5.7L523,369.2z"/>
			</g>
		</g>
		<g>
			<g>
				<path fill="#FFFFFF" d="M77.2,232.1c0,0,0,0.5-0.2,1.5c-0.2,1-0.2,2.5-0.7,4.5c-0.2,1-0.2,2-0.5,3c-0.2,1.2-0.2,2.2-0.5,3.7
					c-0.2,2.5-0.7,5.5-1.2,8.7c-0.2,1.5-0.5,3.2-0.7,5s-0.5,3.5-0.5,5.2c0,1-0.2,1.7-0.2,2.7c0,1-0.2,2-0.2,2.7c0,2-0.2,3.7-0.5,5.7
					c0,2-0.2,4-0.2,6c0,1-0.2,2-0.2,3s0,2,0,3c0,1,0,2,0,3.2c0,1,0,2,0,3.2c0,2,0,4.2,0,6.2c0,1,0,2,0,3.2c0,1,0,2,0,3.2
					c0,1,0,2,0,3.2c0,1,0,2,0,3.2c0,1,0,2,0,3s0,2,0,3c0.2,2,0.2,4,0.2,6c0,1,0.2,2,0.2,3c0,1,0.2,2,0.2,3c0.2,2,0.2,3.7,0.5,5.7
					c0.5,3.7,0.7,7,1,10.2c0.2,1.5,0.5,3.2,0.5,4.5c0.2,1.5,0.5,2.7,0.5,4.2c0.2,1.2,0.2,2.5,0.5,3.7c0.2,1.2,0.2,2.2,0.5,3
					c0.2,1.7,0.5,3.2,0.5,4.5c0,1,0.2,1.5,0.2,1.5l-0.5,0.2c0,0-0.5-2-1.7-5.7c-0.2-1-0.5-2-0.7-3s-0.5-2.2-1-3.5
					c-0.2-1.2-0.7-2.7-1-4c-0.2-1.5-0.5-3-1-4.5c-0.2-0.7-0.2-1.5-0.5-2.5c0-0.5-0.2-0.7-0.2-1.2c0-0.5-0.2-0.7-0.2-1.2
					c-0.2-1.7-0.5-3.5-1-5.2c-0.2-1.7-0.5-3.7-0.7-5.7c-0.2-1-0.2-2-0.5-3c-0.2-1-0.2-2-0.2-3c-0.2-2-0.5-4-0.5-6.2
					c0-1-0.2-2-0.2-3.2c0-1,0-2-0.2-3.2c0-1,0-2.2-0.2-3.2c0-1,0-2.2,0-3.2c0-1,0-2.2,0-3.2c0-1,0-2.2,0-3.2c0-2.2,0-4.2,0.2-6.5
					c0-1,0-2.2,0.2-3.2c0-1,0-2.2,0.2-3.2c0-1,0-2.2,0.2-3.2c0-1,0.2-2,0.2-3.2c0.2-2,0.5-4.2,0.5-6.2c0.2-2,0.5-4,0.7-6
					c0.2-1,0.2-2,0.5-2.7c0.2-1,0.2-1.7,0.5-2.7c0.2-1.7,0.5-3.5,1-5.2c0.2-1.7,0.7-3.2,1-5c0.2-0.7,0.2-1.5,0.5-2.2
					c0.2-0.7,0.2-1.5,0.5-2.2c0.2-1.5,0.7-2.7,1-4c0.2-1.2,0.7-2.5,1-3.5c0.2-1,0.5-2,1-3c1-3.7,1.7-5.7,1.7-5.7L77.2,232.1z"/>
			</g>
		</g>
	</g>
	<g>
		<g>
			<line fill="#FFFFFF" x1="219.5" y1="106.3" x2="381" y2="498.2"/>
		</g>
		<g>
			<path fill="#FFFFFF" d="M220,106c0,0,3,6,8.2,16.4c5,10.5,12,25.4,19.9,43.9c1,2.2,2,4.7,3,7c1,2.5,2,4.7,3,7.2
				c2,5,4.2,10,6.2,15.4c4.2,10.5,8.2,21.9,12.5,33.6c1,3,2.2,6,3.2,8.7c1,3,2.2,6,3.2,9c2.2,6,4.7,12,7.2,17.9
				c5,12,10.5,24.2,15.9,36.1c2.7,6,5.5,12,8.2,17.9c1.2,3,2.7,6,4,9c1.2,3,2.7,6,4,9c5.2,12,10.2,23.7,15.2,35.1
				c5,11.5,9.5,22.4,13.7,33.1c1,2.7,2,5.2,3,7.7c1,2.5,2,5,3,7.7c2,5,3.7,9.7,5.5,14.5c3.5,9.2,6.7,17.9,9.5,25.4
				c0.7,2,1.2,3.7,2,5.5c0.7,1.7,1.2,3.5,1.7,5.2c1.2,3.2,2.2,6.2,3.2,9c3.7,11,5.7,17.2,5.7,17.2l-0.7,0.2c0,0-3-6-8-16.4
				c-1.2-2.5-2.7-5.5-4.2-8.7c-0.7-1.5-1.5-3.2-2.2-5s-1.5-3.5-2.5-5.2c-3.5-7.2-7.2-15.7-11.2-24.7c-2-4.5-4-9.2-6.2-14.2
				c-1-2.5-2.2-5-3.2-7.5s-2.2-5.2-3.2-7.7c-4.5-10.5-9-21.7-13.7-33.1c-4.5-11.5-9.2-23.4-14-35.6c-1.2-3-2.2-6-3.5-9.2
				c-1.2-3-2.2-6.2-3.5-9.2c-2.2-6.2-4.5-12.5-6.7-18.7c-4.5-12.5-9.2-24.9-14.2-36.9c-2.5-6-5-12-7.5-17.9c-1.2-3-2.5-5.7-4-8.7
				c-1.2-2.7-2.5-5.7-4-8.5c-5.2-11.2-10.5-22.2-15-32.6c-2.2-5.2-4.5-10.2-6.5-15.2c-1-2.5-2-5-3-7.2c-1-2.5-2-4.7-2.7-7
				c-7.2-18.4-13-34.1-16.7-45.1S219,106,219,106H220z"/>
		</g>
	</g>
	<g>
		<g>
			<line fill="#FFFFFF" x1="488.1" y1="211.4" x2="112.1" y2="210.2"/>
		</g>
		<g>
			<path fill="#FFFFFF" d="M488.1,211.4c0,0-1.5,0-4.2,0.2c-2.7,0-6.7,0.2-12,0.5c-5.2,0.2-11.5,0.5-18.4,0.5
				c-3.5,0-7.5,0.2-11.5,0.2s-8.2,0.2-12.7,0.2c-4.5,0-9,0.2-13.7,0.2s-9.7,0.2-14.7,0.2c-10.2,0.2-20.7,0.2-31.6,0.5
				c-5.5,0-11.2,0-16.7,0.2c-5.7,0-11.5,0-17.2,0c-11.5,0-23.4,0-35.1,0s-23.4,0-35.1-0.2c-3,0-5.7,0-8.7,0c-2.7,0-5.7,0-8.5,0
				c-5.7,0-11.2-0.2-16.7-0.2c-11-0.2-21.7-0.5-31.6-0.5c-5,0-10-0.2-14.7-0.2c-4.7-0.2-9.2-0.2-13.7-0.5c-4.5-0.2-8.7-0.2-12.7-0.5
				c-4-0.2-7.7-0.2-11.5-0.5c-7.2-0.2-13.5-0.5-18.4-0.7c-5.2-0.2-9.2-0.5-12-0.5c-2.7-0.2-4.2-0.2-4.2-0.2s1.5,0,4.2-0.2
				c2.7,0,6.7-0.2,12-0.5c5.2-0.2,11.5-0.5,18.4-0.5c3.5,0,7.5-0.2,11.5-0.2s8.2-0.2,12.7-0.2c4.5,0,9-0.2,13.7-0.2
				s9.7-0.2,14.7-0.2c10.2-0.2,20.7-0.2,31.6-0.5c5.5,0,11.2,0,16.7-0.2c2.7,0,5.7,0,8.5,0c2.7,0,5.7,0,8.7,0c11.5,0,23.4,0,35.1,0
				s23.4,0,35.1,0.2c5.7,0,11.5,0.2,17.2,0.2c5.7,0,11.2,0.2,16.7,0.2c11,0.2,21.7,0.5,31.6,0.5c5,0,10,0.2,14.7,0.2
				c4.7,0.2,9.2,0.2,13.7,0.5c4.5,0.2,8.7,0.2,12.7,0.5s7.7,0.2,11.5,0.5c7.2,0.2,13.5,0.5,18.4,0.7c5.2,0.2,9.2,0.5,12,0.5
				C486.6,211.4,488.1,211.4,488.1,211.4z"/>
		</g>
	</g>
	<g>
		<g>
			<line fill="#FFFFFF" x1="489.1" y1="389.8" x2="110.1" y2="389.8"/>
		</g>
		<g>
			<path fill="#FFFFFF" d="M489.1,389.8c0,0-1.5,0-4.2,0.2c-2.7,0-6.7,0.2-12,0.5c-5.2,0.2-11.5,0.2-18.7,0.5
				c-7.2,0.2-15.4,0.5-24.2,0.5c-4.5,0-9,0.2-14,0.2c-4.7,0-9.7,0.2-14.7,0.2c-10.2,0.2-20.9,0.2-31.9,0.5c-5.5,0-11.2,0-16.9,0.2
				c-2.7,0-5.7,0-8.7,0c-3,0-5.7,0-8.7,0c-11.7,0-23.4,0-35.4,0c-12,0-23.7,0-35.4,0c-3,0-5.7,0-8.7,0s-5.7,0-8.7,0
				c-5.7,0-11.5,0-16.9-0.2c-11.2,0-21.9-0.2-31.9-0.5c-5,0-10-0.2-14.7-0.2s-9.5-0.2-14-0.2c-4.5,0-8.7-0.2-12.7-0.2
				s-8-0.2-11.5-0.2c-7.2-0.2-13.5-0.5-18.7-0.5c-5.2-0.2-9.2-0.2-12-0.5c-2.7,0-4.2-0.2-4.2-0.2s1.5,0,4.2-0.2
				c2.7,0,6.7-0.2,12-0.5c5.2-0.2,11.5-0.2,18.7-0.5c3.5,0,7.5-0.2,11.5-0.2s8.2-0.2,12.7-0.2c4.5,0,9-0.2,14-0.2
				c4.7,0,9.7-0.2,14.7-0.2c10.2-0.2,20.9-0.2,31.9-0.5c5.5,0,11.2,0,16.9-0.2c2.7,0,5.7,0,8.7,0s5.7,0,8.7,0c11.7,0,23.4,0,35.4,0
				c12,0,23.7,0,35.4,0c3,0,5.7,0,8.7,0c3,0,5.7,0,8.7,0c5.7,0,11.5,0,16.9,0.2c11.2,0,21.9,0.2,31.9,0.5c5,0,10,0.2,14.7,0.2
				s9.5,0.2,14,0.2c9,0.2,16.9,0.5,24.2,0.5c7.2,0.2,13.5,0.5,18.7,0.5c5.2,0.2,9.2,0.2,12,0.5C487.6,389.8,489.1,389.8,489.1,389.8
				z"/>
		</g>
	</g>
	<g>
		<g>
			<polygon fill="#FFFFFF" points="368,85.1 380,81.1 374.8,69.9 386,75.4 390.5,63.9 394.2,75.6 405.7,70.6 399.9,81.6 411.6,86.3 
				399.7,90.1 404.7,101.5 393.7,95.8 389.2,107.3 385.5,95.5 374,100.5 379.7,89.6 			"/>
		</g>
		<g>
			<polygon fill="#FFFFFF" points="188.1,515.9 199.8,511.9 194.8,500.7 206.1,506.2 210.5,494.7 214.3,506.5 225.7,501.5 
				220,512.7 231.5,517.2 219.8,520.9 224.7,532.4 213.8,526.6 209.3,538.3 205.3,526.4 194.1,531.4 199.6,520.4 			"/>
		</g>
		<g>
			<path fill="#FFFFFF" stroke="#000000" stroke-miterlimit="10" d="M85,210.9"/>
		</g>
		<g>
			<g>
				<path fill="#FFFFFF" d="M390,85.8"/>
			</g>
		</g>
		<g>
			<g>
				<path fill="#FFFFFF" d="M506.1,191.7c0,0-0.2-0.5-1-1.2c-0.5-0.7-1.5-2-2.7-3.5c-0.5-0.7-1.2-1.5-1.7-2.5c-0.7-1-1.5-2-2.2-3
					c-1.5-2-3.2-4.5-5.2-7c-1-1.2-2-2.5-3-4c-1-1.2-2.2-2.7-3.2-4.2c-0.5-0.7-1.2-1.5-1.7-2.2c-0.5-0.7-1.2-1.5-1.7-2.2
					c-1.2-1.5-2.5-3-3.7-4.5c-1.2-1.5-2.7-3-4-4.5c-0.7-0.7-1.2-1.5-2-2.2s-1.5-1.5-2.2-2.2c-0.7-0.7-1.5-1.5-2.2-2.2
					c-0.7-0.7-1.5-1.5-2.2-2.2c-1.5-1.5-3-3-4.5-4.5c-0.7-0.7-1.5-1.5-2.2-2.2s-1.5-1.5-2.2-2.2c-0.7-0.7-1.5-1.5-2.2-2.2
					s-1.5-1.5-2.2-2.2s-1.5-1.5-2.2-2c-0.7-0.7-1.5-1.5-2.2-2c-1.5-1.2-3-2.7-4.5-4c-0.7-0.7-1.5-1.2-2.2-2c-0.7-0.5-1.5-1.2-2.2-2
					c-1.5-1.2-2.7-2.5-4.2-3.7c-3-2.2-5.5-4.5-8-6.5c-1.2-1-2.5-2-3.7-2.7c-1.2-1-2.2-1.7-3.2-2.5c-1-0.7-2-1.5-3-2.2
					c-1-0.7-1.7-1.2-2.5-1.7c-1.5-1-2.7-2-3.5-2.7c-0.7-0.7-1.2-1-1.2-1l0.2-0.5c0,0,2,1,5.2,2.7c0.7,0.5,1.7,1,2.7,1.5
					c1,0.5,2,1.2,3.2,2c1.2,0.7,2.2,1.5,3.5,2.2c1.2,0.7,2.5,1.7,4,2.5c0.7,0.5,1.2,1,2,1.2c0.2,0.2,0.7,0.5,1,0.7
					c0.2,0.2,0.7,0.5,1,0.7c1.5,1,3,2,4.5,3.2c1.5,1,3,2.2,4.5,3.5c0.7,0.5,1.5,1.2,2.2,1.7c0.7,0.5,1.5,1.2,2.2,1.7
					c1.5,1.2,3.2,2.5,4.7,4c0.7,0.7,1.5,1.2,2.5,2c0.7,0.7,1.5,1.5,2.5,2c0.7,0.7,1.5,1.5,2.5,2.2c0.7,0.7,1.5,1.5,2.2,2.2
					s1.5,1.5,2.2,2.2c0.7,0.7,1.5,1.5,2.2,2.2c1.5,1.5,3,3,4.5,4.7c0.7,0.7,1.5,1.5,2.2,2.2c0.7,0.7,1.5,1.5,2.2,2.5
					c0.7,0.7,1.5,1.5,2,2.2c0.7,0.7,1.2,1.5,2,2.5c1.2,1.5,2.7,3.2,4,4.7c1.2,1.5,2.5,3.2,3.7,4.7c0.5,0.7,1.2,1.5,1.7,2.2
					c0.5,0.7,1,1.5,1.7,2.2c1,1.5,2.2,3,3.2,4.5c1,1.5,2,3,2.7,4.2c0.5,0.7,1,1.2,1.2,2c0.5,0.7,0.7,1.2,1.2,2
					c0.7,1.2,1.5,2.5,2.2,3.5c0.7,1.2,1.2,2.2,2,3.2c0.5,1,1,2,1.5,2.7c1.7,3.2,2.7,5.2,2.7,5.2L506.1,191.7z"/>
			</g>
		</g>
		<g>
			<g>
				<path fill="#FFFFFF" d="M93.9,410c0,0,0.2,0.5,1,1.2c0.5,0.7,1.5,2,2.7,3.5c0.5,0.7,1.2,1.7,1.7,2.5c0.7,1,1.5,2,2.2,3
					c1.5,2,3.2,4.5,5.2,7c1,1.2,2,2.5,3,4c1,1.2,2.2,2.7,3.2,4.2c0.5,0.7,1.2,1.5,1.7,2.2c0.5,0.7,1.2,1.5,1.7,2.2
					c1.2,1.5,2.5,3,3.7,4.5c1.2,1.5,2.7,3,4,4.5c0.7,0.7,1.2,1.5,2,2.2c0.7,0.7,1.5,1.5,2,2.2c0.7,0.7,1.5,1.5,2.2,2.2
					c0.7,0.7,1.5,1.5,2.2,2.2c1.5,1.5,3,3,4.5,4.5c0.7,0.7,1.5,1.5,2.2,2.2c0.7,0.7,1.5,1.5,2.2,2.2c0.7,0.7,1.5,1.5,2.2,2.2
					c0.7,0.7,1.5,1.5,2.2,2.2c0.7,0.7,1.5,1.5,2.2,2.2c0.7,0.7,1.5,1.5,2.2,2c1.5,1.2,3,2.7,4.5,4c0.7,0.7,1.5,1.2,2.2,2
					c0.7,0.5,1.5,1.2,2.2,2c1.5,1.2,2.7,2.5,4.2,3.7c2.7,2.2,5.5,4.5,8,6.5c1.2,1,2.5,2,3.7,2.7c1.2,1,2.2,1.7,3.2,2.5
					c1,0.7,2,1.5,3,2.2c1,0.7,1.7,1.2,2.5,1.7c1.5,1,2.7,2,3.5,2.7c0.7,0.7,1.2,1,1.2,1l-0.2,0.5c0,0-2-1-5.2-3
					c-0.7-0.5-1.7-1-2.7-1.5c-1-0.5-2-1.2-3.2-2c-1.2-0.7-2.2-1.5-3.5-2.2c-1.2-0.7-2.5-1.7-4-2.5c-0.7-0.5-1.2-1-2-1.2
					c-0.2-0.2-0.7-0.5-1-0.7c-0.2-0.2-0.7-0.5-1-0.7c-1.5-1-3-2-4.5-3.2c-1.5-1-3-2.2-4.5-3.5c-0.7-0.5-1.5-1.2-2.2-1.7
					s-1.5-1.2-2.2-2c-1.5-1.2-3.2-2.5-4.7-4c-0.7-0.7-1.5-1.2-2.5-2c-0.7-0.7-1.5-1.5-2.5-2c-0.7-0.7-1.5-1.5-2.5-2.2
					c-0.7-0.7-1.5-1.5-2.2-2.2c-0.7-0.7-1.5-1.5-2.2-2.2c-0.7-0.7-1.5-1.5-2.2-2.2c-1.5-1.5-3-3.2-4.5-4.7c-0.7-0.7-1.5-1.5-2.2-2.5
					c-0.7-0.7-1.5-1.5-2.2-2.5c-0.7-0.7-1.5-1.5-2-2.5c-0.7-0.7-1.2-1.5-2-2.5c-1.2-1.5-2.7-3.2-4-4.7c-1.2-1.5-2.5-3.2-3.7-4.7
					c-0.5-0.7-1.2-1.5-1.7-2.2c-0.5-0.7-1-1.5-1.7-2.2c-1-1.5-2-3-3.2-4.5c-1-1.5-2-3-2.7-4.2c-0.5-0.7-1-1.2-1.2-2
					c-0.5-0.7-0.7-1.2-1.2-2c-0.7-1.2-1.5-2.5-2.2-3.5c-0.7-1.2-1.2-2.2-2-3.2c-0.5-1-1-2-1.5-2.7c-1.7-3.2-2.7-5.2-2.7-5.2
					L93.9,410z"/>
			</g>
		</g>
	</g>
</g>
</svg>
